<?xml version="1.0" encoding="UTF-8" standalone="no"?>
<!DOCTYPE svg PUBLIC "-//W3C//DTD SVG 1.1//EN" "http://www.w3.org/Graphics/SVG/1.1/DTD/svg11.dtd">
<svg width="100%" height="100%" viewBox="0 0 32 32" version="1.1" xmlns="http://www.w3.org/2000/svg" xmlns:xlink="http://www.w3.org/1999/xlink" xml:space="preserve" xmlns:serif="http://www.serif.com/" style="fill-rule:evenodd;clip-rule:evenodd;stroke-linejoin:round;stroke-miterlimit:2;">
    <g transform="matrix(1.81217,0,0,1.81217,-1.61053,-2.49474)">
        <circle cx="9.718" cy="10.206" r="7.726"/>
    </g>
    <g transform="matrix(0.710719,-0.710719,0.709813,0.709813,-0.999506,15.2453)">
        <path d="M4.894,6.018C4.347,6.018 3.904,6.461 3.904,7.008C3.904,8.931 3.904,13.149 3.904,15.072C3.904,15.619 4.347,16.063 4.894,16.063C7.406,16.063 13.844,16.063 13.948,16.063C13.949,16.063 13.95,16.063 13.951,16.063C14.04,16.062 18.801,16.05 20.912,16.045C21.458,16.043 21.9,15.599 21.899,15.052C21.897,14.396 21.895,13.538 21.893,12.882C21.892,12.335 21.448,11.893 20.901,11.894C18.792,11.9 14.034,11.912 13.945,11.912C13.944,11.912 13.944,11.912 13.943,11.912C13.87,11.912 10.698,11.912 9.039,11.912C8.777,11.912 8.525,11.808 8.34,11.622C8.154,11.436 8.05,11.184 8.05,10.921C8.05,9.833 8.05,8.096 8.05,7.008C8.05,6.746 7.946,6.494 7.76,6.308C7.575,6.122 7.323,6.018 7.061,6.018C6.405,6.018 5.549,6.018 4.894,6.018Z" style="fill:white;"/>
    </g>
</svg>
